<?xml version="1.0" encoding="UTF-8" standalone="no"?>
<!-- Created with Inkscape (http://www.inkscape.org/) -->

<svg
   width="1000mm"
   height="1000mm"
   viewBox="0 0 1000 1000"
   version="1.1"
   id="svg3612"
   inkscape:version="1.2 (dc2aedaf03, 2022-05-15)"
   sodipodi:docname="NICHD.svg"
   xmlns:inkscape="http://www.inkscape.org/namespaces/inkscape"
   xmlns:sodipodi="http://sodipodi.sourceforge.net/DTD/sodipodi-0.dtd"
   xmlns="http://www.w3.org/2000/svg"
   xmlns:svg="http://www.w3.org/2000/svg">
  <sodipodi:namedview
     id="namedview3614"
     pagecolor="#ffffff"
     bordercolor="#000000"
     borderopacity="0.25"
     inkscape:showpageshadow="2"
     inkscape:pageopacity="0.0"
     inkscape:pagecheckerboard="0"
     inkscape:deskcolor="#d1d1d1"
     inkscape:document-units="mm"
     showgrid="false"
     inkscape:zoom="0.2102413"
     inkscape:cx="1793.1776"
     inkscape:cy="2164.1799"
     inkscape:window-width="2400"
     inkscape:window-height="1494"
     inkscape:window-x="-11"
     inkscape:window-y="-11"
     inkscape:window-maximized="1"
     inkscape:current-layer="layer1" />
  <defs
     id="defs3609">
    <clipPath
       clipPathUnits="userSpaceOnUse"
       id="clipPath2306">
      <path
         d="M 0,648 H 432 V 0 H 0 Z"
         id="path2304" />
    </clipPath>
    <clipPath
       clipPathUnits="userSpaceOnUse"
       id="clipPath2458">
      <path
         d="M 128.434,28.074 H 292.143 V 56.307 H 128.434 Z"
         id="path2456" />
    </clipPath>
    <clipPath
       clipPathUnits="userSpaceOnUse"
       id="clipPath3605">
      <path
         d="m -178.40759,611.4677 h 432 V -36.532303 h -432 z"
         id="path3607"
         style="stroke-width:0.999998" />
    </clipPath>
    <clipPath
       clipPathUnits="userSpaceOnUse"
       id="clipPath3601">
      <path
         d="m -180.21449,608.1358 h 432 V -39.864197 h -432 z"
         id="path3603"
         style="stroke-width:0.999998" />
    </clipPath>
    <clipPath
       clipPathUnits="userSpaceOnUse"
       id="clipPath3597">
      <path
         d="m -187.1609,608.32381 h 432 V -39.676193 h -432 z"
         id="path3599"
         style="stroke-width:0.999998" />
    </clipPath>
    <clipPath
       clipPathUnits="userSpaceOnUse"
       id="clipPath3593">
      <path
         d="m -188.4612,606.899 h 432 V -41.100998 h -432 z"
         id="path3595"
         style="stroke-width:0.999998" />
    </clipPath>
    <clipPath
       clipPathUnits="userSpaceOnUse"
       id="clipPath3589">
      <path
         d="m -197.817,611.37981 h 432 V -36.620194 h -432 z"
         id="path3591"
         style="stroke-width:0.999998" />
    </clipPath>
    <clipPath
       clipPathUnits="userSpaceOnUse"
       id="clipPath3585">
      <path
         d="m -200.2019,606.899 h 432 V -41.100998 h -432 z"
         id="path3587"
         style="stroke-width:0.999998" />
    </clipPath>
    <clipPath
       clipPathUnits="userSpaceOnUse"
       id="clipPath3581">
      <path
         d="m -205.10159,609.9426 h 432 V -38.057404 h -432 z"
         id="path3583"
         style="stroke-width:0.999998" />
    </clipPath>
    <clipPath
       clipPathUnits="userSpaceOnUse"
       id="clipPath3577">
      <path
         d="m -210.6436,610.65759 h 432 V -37.342407 h -432 z"
         id="path3579"
         style="stroke-width:0.999998" />
    </clipPath>
    <clipPath
       clipPathUnits="userSpaceOnUse"
       id="clipPath3573">
      <path
         d="m -212.382,608.1358 h 432 V -39.864197 h -432 z"
         id="path3575"
         style="stroke-width:0.999998" />
    </clipPath>
    <clipPath
       clipPathUnits="userSpaceOnUse"
       id="clipPath3569">
      <path
         d="m -214.6852,606.899 h 432 V -41.100998 h -432 z"
         id="path3571"
         style="stroke-width:0.999998" />
    </clipPath>
    <clipPath
       clipPathUnits="userSpaceOnUse"
       id="clipPath3565">
      <path
         d="m -222.7491,610.65759 h 432 V -37.342407 h -432 z"
         id="path3567"
         style="stroke-width:0.999998" />
    </clipPath>
    <clipPath
       clipPathUnits="userSpaceOnUse"
       id="clipPath3561">
      <path
         d="m -223.4079,608.1358 h 432 V -39.864197 h -432 z"
         id="path3563"
         style="stroke-width:0.999998" />
    </clipPath>
    <clipPath
       clipPathUnits="userSpaceOnUse"
       id="clipPath3557">
      <path
         d="m -229.959,611.37981 h 432 V -36.620194 h -432 z"
         id="path3559"
         style="stroke-width:0.999998" />
    </clipPath>
    <clipPath
       clipPathUnits="userSpaceOnUse"
       id="clipPath3553">
      <path
         d="m -232.33791,606.899 h 432 V -41.100998 h -432 z"
         id="path3555"
         style="stroke-width:0.999998" />
    </clipPath>
    <clipPath
       clipPathUnits="userSpaceOnUse"
       id="clipPath3549">
      <path
         d="m -239.5287,611.37981 h 432 V -36.620194 h -432 z"
         id="path3551"
         style="stroke-width:0.999998" />
    </clipPath>
    <clipPath
       clipPathUnits="userSpaceOnUse"
       id="clipPath3545">
      <path
         d="m -240.17619,608.1358 h 432 V -39.864197 h -432 z"
         id="path3547"
         style="stroke-width:0.999998" />
    </clipPath>
    <clipPath
       clipPathUnits="userSpaceOnUse"
       id="clipPath3541">
      <path
         d="m -248.239,610.65759 h 432 V -37.342407 h -432 z"
         id="path3543"
         style="stroke-width:0.999998" />
    </clipPath>
    <clipPath
       clipPathUnits="userSpaceOnUse"
       id="clipPath3537">
      <path
         d="m -248.899,608.1358 h 432 V -39.864197 h -432 z"
         id="path3539"
         style="stroke-width:0.999998" />
    </clipPath>
    <clipPath
       clipPathUnits="userSpaceOnUse"
       id="clipPath3533">
      <path
         d="m -254.1254,606.899 h 432 V -41.100998 h -432 z"
         id="path3535"
         style="stroke-width:0.999998" />
    </clipPath>
    <clipPath
       clipPathUnits="userSpaceOnUse"
       id="clipPath3529">
      <path
         d="m -259.0076,609.9426 h 432 V -38.057404 h -432 z"
         id="path3531"
         style="stroke-width:0.999998" />
    </clipPath>
    <clipPath
       clipPathUnits="userSpaceOnUse"
       id="clipPath3525">
      <path
         d="m -261.5041,608.1358 h 432 V -39.864197 h -432 z"
         id="path3527"
         style="stroke-width:0.999998" />
    </clipPath>
    <clipPath
       clipPathUnits="userSpaceOnUse"
       id="clipPath3521">
      <path
         d="m -265.5267,609.9426 h 432 V -38.057404 h -432 z"
         id="path3523"
         style="stroke-width:0.999998" />
    </clipPath>
    <clipPath
       clipPathUnits="userSpaceOnUse"
       id="clipPath3517">
      <path
         d="m -271.2383,611.4677 h 432 V -36.532303 h -432 z"
         id="path3519"
         style="stroke-width:0.999998" />
    </clipPath>
    <clipPath
       clipPathUnits="userSpaceOnUse"
       id="clipPath3513">
      <path
         d="m -273.3846,608.1358 h 432 V -39.864197 h -432 z"
         id="path3515"
         style="stroke-width:0.999998" />
    </clipPath>
    <clipPath
       clipPathUnits="userSpaceOnUse"
       id="clipPath3509">
      <path
         d="m -277.08701,608.1358 h 432 V -39.864197 h -432 z"
         id="path3511"
         style="stroke-width:0.999998" />
    </clipPath>
    <clipPath
       clipPathUnits="userSpaceOnUse"
       id="clipPath3505">
      <path
         d="m -282.9911,609.9426 h 432 V -38.057404 h -432 z"
         id="path3507"
         style="stroke-width:0.999998" />
    </clipPath>
    <clipPath
       clipPathUnits="userSpaceOnUse"
       id="clipPath3501">
      <path
         d="m -285.8098,608.1358 h 432 V -39.864197 h -432 z"
         id="path3503"
         style="stroke-width:0.999998" />
    </clipPath>
    <clipPath
       clipPathUnits="userSpaceOnUse"
       id="clipPath3497">
      <path
         d="m -288.9789,608.1358 h 432 V -39.864197 h -432 z"
         id="path3499"
         style="stroke-width:0.999998" />
    </clipPath>
  </defs>
  <g
     inkscape:label="Layer 1"
     inkscape:groupmode="layer"
     id="layer1">
    <g
       id="g4638"
       transform="matrix(16.449291,0,0,16.449291,-9147.6935,-8491.4412)">
      <g
         id="g2300"
         transform="matrix(0.35277777,0,0,-0.35277777,512.26422,559.80313)">
        <g
           id="g2302"
           clip-path="url(#clipPath2306)">
          <g
             id="g2308"
             transform="translate(159.804,48.468399)">
            <path
               d="M 0,0 V -12.62 H -2.209 -2.21 v 5.691 h -5.744 v -5.691 h -2.21 V 0 h 2.21 V -5.019 H -2.21 V 0 h 10e-4 z m -12.374,-12.62 v 0 h -2.21 V 0 h 2.21 z m -4.387,0 v 0 h -2.333 l -5.745,9.28 h -0.052 v -9.28 h -2.103 -0.001 V 0 h 0.001 2.332 10e-4 l 5.761,-9.297 h 0.036 V 0 h 2.103 z M 7.786,-6.265 -0.02,7.838 h -28.752 c -1.436,0 -2.599,-1.164 -2.599,-2.598 v -23.037 c 0,-1.434 1.163,-2.598 2.599,-2.598 h 28.725 z"
               style="fill:#231f20;fill-opacity:1;fill-rule:nonzero;stroke:none"
               id="path2310" />
          </g>
          <g
             id="g2312"
             transform="translate(161.7162,28.073303)">
            <path
               d="M 0,0 7.824,14.13 0.025,28.233 h 1.952 c 1.069,0 2.368,-0.766 2.884,-1.702 L 11.718,14.13 4.838,1.7 C 4.32,0.764 3.022,0 1.953,0 Z"
               style="fill:#231f20;fill-opacity:1;fill-rule:nonzero;stroke:none"
               id="path2314" />
          </g>
          <g
             id="g2316"
             transform="translate(161.7162,28.073303)">
            <path
               d="m 0,0 7.825,14.13 -7.8,14.103 h 1.952 c 1.069,0 2.369,-0.766 2.885,-1.702 L 11.718,14.13 4.838,1.7 C 4.32,0.764 3.021,0 1.954,0 Z"
               style="fill:#231f20;fill-opacity:1;fill-rule:nonzero;stroke:none"
               id="path2318" />
          </g>
          <g
             id="g2320"
             transform="translate(177.4782,48.628693)">
            <path
               d="M 0,0 H 3.261 L 3.123,-0.677 H 0.633 L 0.389,-1.85 H 2.696 L 2.565,-2.489 H 0.251 L -0.018,-3.8 H 2.49 L 2.352,-4.478 h -3.28 z"
               style="fill:#231f20;fill-opacity:1;fill-rule:nonzero;stroke:none"
               id="path2322" />
          </g>
          <g
             id="g2324"
             transform="translate(183.1438,44.151001)">
            <path
               d="m 0,0 h -0.671 l 0.1,0.471 -0.012,0.012 C -0.841,0.126 -1.254,-0.088 -1.7,-0.088 c -0.652,0 -0.947,0.339 -0.947,0.859 0,0.12 0.007,0.289 0.031,0.401 l 0.433,2.071 h 0.715 L -1.882,1.242 C -1.907,1.135 -1.933,1.028 -1.933,0.941 c 0,-0.107 -0.03,-0.464 0.497,-0.464 0.551,0 0.927,0.527 1.028,1.009 l 0.364,1.757 h 0.715 z"
               style="fill:#231f20;fill-opacity:1;fill-rule:nonzero;stroke:none"
               id="path2326" />
          </g>
          <g
             id="g2328"
             transform="translate(184.4808,47.393799)">
            <path
               d="m 0,0 h 0.671 l -0.1,-0.471 0.012,-0.012 c 0.258,0.357 0.671,0.571 1.117,0.571 0.652,0 0.947,-0.339 0.947,-0.86 0,-0.119 -0.006,-0.288 -0.031,-0.402 L 2.183,-3.243 H 1.468 l 0.414,2.001 c 0.025,0.106 0.05,0.213 0.05,0.301 0,0.107 0.025,0.464 -0.495,0.464 -0.283,0 -0.502,-0.138 -0.678,-0.314 C 0.596,-0.96 0.465,-1.224 0.409,-1.487 L 0.044,-3.243 h -0.715 z"
               style="fill:#231f20;fill-opacity:1;fill-rule:nonzero;stroke:none"
               id="path2330" />
          </g>
          <g
             id="g2332"
             transform="translate(187.977,47.393799)">
            <path
               d="M 0,0 H 0.715 L 0.044,-3.243 H -0.671 Z M 0.257,1.235 H 0.966 L 0.828,0.558 H 0.119 Z"
               style="fill:#231f20;fill-opacity:1;fill-rule:nonzero;stroke:none"
               id="path2334" />
          </g>
          <g
             id="g2336"
             transform="translate(191.27699,46.321304)">
            <path
               d="m 0,0 c 0.012,0.401 -0.251,0.596 -0.639,0.596 -0.715,0 -1.067,-0.822 -1.067,-1.443 0,-0.483 0.188,-0.846 0.721,-0.846 0.42,0 0.697,0.25 0.816,0.639 h 0.714 c -0.231,-0.828 -0.802,-1.204 -1.649,-1.204 -0.847,0 -1.317,0.565 -1.317,1.386 0,1.092 0.69,2.032 1.844,2.032 0.721,0 1.318,-0.401 1.292,-1.16 z"
               style="fill:#231f20;fill-opacity:1;fill-rule:nonzero;stroke:none"
               id="path2338" />
          </g>
          <g
             id="g2340"
             transform="translate(195.1982,45.154907)">
            <path
               d="m 0,0 c -0.226,-0.753 -0.791,-1.092 -1.562,-1.092 -0.821,0 -1.417,0.539 -1.417,1.418 0,0.997 0.64,2.001 1.8,2.001 1.154,0 1.38,-0.86 1.38,-1.493 0,-0.157 -0.019,-0.295 -0.038,-0.402 H -2.251 C -2.264,0.358 -2.264,0.288 -2.264,0.226 c 0,-0.446 0.232,-0.753 0.772,-0.753 0.382,0 0.677,0.188 0.777,0.527 z m -0.52,0.903 c 0.006,0.075 0.006,0.138 0.006,0.2 0,0.383 -0.257,0.659 -0.684,0.659 -0.533,0 -0.84,-0.358 -0.985,-0.859 z"
               style="fill:#231f20;fill-opacity:1;fill-rule:nonzero;stroke:none"
               id="path2342" />
          </g>
          <g
             id="g2344"
             transform="translate(198.09891,48.628693)">
            <path
               d="M 0,0 H 0.784 L 0.364,-2.032 0.376,-2.044 2.66,0 H 3.707 L 1.556,-1.85 2.96,-4.478 H 2.069 l -1.122,2.139 -0.791,-0.677 -0.3,-1.462 h -0.784 z"
               style="fill:#231f20;fill-opacity:1;fill-rule:nonzero;stroke:none"
               id="path2346" />
          </g>
          <g
             id="g2348"
             transform="translate(204.39169,45.154907)">
            <path
               d="m 0,0 c -0.226,-0.753 -0.791,-1.092 -1.562,-1.092 -0.821,0 -1.417,0.539 -1.417,1.418 0,0.997 0.64,2.001 1.8,2.001 1.155,0 1.38,-0.86 1.38,-1.493 0,-0.157 -0.019,-0.295 -0.038,-0.402 H -2.251 C -2.264,0.358 -2.264,0.288 -2.264,0.226 c 0,-0.446 0.232,-0.753 0.772,-0.753 0.382,0 0.677,0.188 0.777,0.527 z m -0.52,0.903 c 0.006,0.075 0.006,0.138 0.006,0.2 0,0.383 -0.257,0.659 -0.684,0.659 -0.533,0 -0.841,-0.358 -0.985,-0.859 z"
               style="fill:#231f20;fill-opacity:1;fill-rule:nonzero;stroke:none"
               id="path2350" />
          </g>
          <g
             id="g2352"
             transform="translate(205.32111,47.393799)">
            <path
               d="m 0,0 h 0.671 l -0.1,-0.471 0.012,-0.012 c 0.258,0.357 0.671,0.571 1.117,0.571 0.652,0 0.947,-0.339 0.947,-0.86 0,-0.119 -0.006,-0.288 -0.031,-0.402 L 2.183,-3.243 H 1.468 l 0.414,2.001 c 0.025,0.106 0.05,0.213 0.05,0.301 0,0.107 0.025,0.464 -0.495,0.464 -0.283,0 -0.502,-0.138 -0.678,-0.314 C 0.597,-0.96 0.465,-1.224 0.409,-1.487 L 0.044,-3.243 h -0.715 z"
               style="fill:#231f20;fill-opacity:1;fill-rule:nonzero;stroke:none"
               id="path2354" />
          </g>
          <g
             id="g2356"
             transform="translate(208.8174,47.393799)">
            <path
               d="m 0,0 h 0.671 l -0.1,-0.471 0.012,-0.012 c 0.258,0.357 0.671,0.571 1.117,0.571 0.652,0 0.947,-0.339 0.947,-0.86 0,-0.119 -0.006,-0.288 -0.031,-0.402 L 2.183,-3.243 H 1.468 l 0.414,2.001 c 0.025,0.106 0.05,0.213 0.05,0.301 0,0.107 0.025,0.464 -0.495,0.464 -0.283,0 -0.502,-0.138 -0.678,-0.314 C 0.597,-0.96 0.465,-1.224 0.408,-1.487 L 0.044,-3.243 h -0.715 z"
               style="fill:#231f20;fill-opacity:1;fill-rule:nonzero;stroke:none"
               id="path2358" />
          </g>
          <g
             id="g2360"
             transform="translate(214.7588,45.154907)">
            <path
               d="m 0,0 c -0.226,-0.753 -0.791,-1.092 -1.562,-1.092 -0.821,0 -1.417,0.539 -1.417,1.418 0,0.997 0.64,2.001 1.8,2.001 1.155,0 1.38,-0.86 1.38,-1.493 0,-0.157 -0.019,-0.295 -0.038,-0.402 H -2.251 C -2.264,0.358 -2.264,0.288 -2.264,0.226 c 0,-0.446 0.232,-0.753 0.772,-0.753 0.382,0 0.677,0.188 0.777,0.527 z m -0.52,0.903 c 0.006,0.075 0.006,0.138 0.006,0.2 0,0.383 -0.257,0.659 -0.684,0.659 -0.533,0 -0.841,-0.358 -0.985,-0.859 z"
               style="fill:#231f20;fill-opacity:1;fill-rule:nonzero;stroke:none"
               id="path2362" />
          </g>
          <g
             id="g2364"
             transform="translate(218.0343,44.151001)">
            <path
               d="m 0,0 h -0.684 l 0.101,0.439 -0.013,0.012 c -0.282,-0.419 -0.634,-0.539 -1.016,-0.539 -0.371,0 -1.261,0.114 -1.261,1.33 0,1.047 0.646,2.089 1.763,2.089 0.433,0 0.809,-0.138 0.978,-0.533 h 0.013 l 0.357,1.68 h 0.715 z m -1.022,2.766 c -0.797,0 -1.136,-0.797 -1.136,-1.524 0,-0.483 0.251,-0.765 0.74,-0.765 0.734,0 1.111,0.859 1.111,1.512 0,0.426 -0.208,0.777 -0.715,0.777"
               style="fill:#231f20;fill-opacity:1;fill-rule:nonzero;stroke:none"
               id="path2366" />
          </g>
          <g
             id="g2368"
             transform="translate(219.00259,47.393799)">
            <path
               d="M 0,0 H 0.753 L 1.092,-2.371 H 1.104 L 2.327,0 H 3.092 L 1.236,-3.343 C 0.897,-3.958 0.653,-4.529 -0.15,-4.529 c -0.145,0 -0.289,0.02 -0.433,0.05 l 0.132,0.597 c 0.087,-0.026 0.188,-0.05 0.275,-0.05 0.214,0 0.377,0.068 0.465,0.275 l 0.282,0.52 z"
               style="fill:#231f20;fill-opacity:1;fill-rule:nonzero;stroke:none"
               id="path2370" />
          </g>
          <g
             id="g2372"
             transform="translate(224.3118,45.630997)">
            <path
               d="m 0,0 c -0.032,-0.696 0.376,-0.947 1.029,-0.947 0.425,0 0.996,0.194 0.996,0.715 0,0.508 -0.521,0.633 -1.072,0.785 -0.395,0.106 -1.223,0.306 -1.223,1.16 0,0.809 0.608,1.392 1.668,1.392 0.935,0 1.694,-0.377 1.656,-1.43 H 2.301 C 2.295,2.233 1.994,2.465 1.386,2.465 1.173,2.465 0.514,2.402 0.514,1.807 0.514,1.368 0.953,1.26 1.448,1.136 2.082,0.972 2.81,0.803 2.81,-0.138 c 0,-0.697 -0.509,-1.448 -1.863,-1.448 -1.054,0 -1.731,0.47 -1.7,1.586 z"
               style="fill:#231f20;fill-opacity:1;fill-rule:nonzero;stroke:none"
               id="path2374" />
          </g>
          <g
             id="g2376"
             transform="translate(228.289,48.628693)">
            <path
               d="M 0,0 H 0.715 L 0.364,-1.693 h 0.013 c 0.244,0.326 0.658,0.546 1.065,0.546 0.653,0 0.948,-0.339 0.948,-0.86 0,-0.118 -0.006,-0.288 -0.032,-0.401 L 1.925,-4.478 H 1.21 l 0.415,2.001 c 0.025,0.106 0.05,0.214 0.05,0.301 0,0.107 0.025,0.464 -0.495,0.464 -0.283,0 -0.503,-0.138 -0.678,-0.313 C 0.339,-2.195 0.207,-2.459 0.15,-2.722 l -0.363,-1.756 h -0.715 z"
               style="fill:#231f20;fill-opacity:1;fill-rule:nonzero;stroke:none"
               id="path2378" />
          </g>
          <g
             id="g2380"
             transform="translate(231.52789,47.393799)">
            <path
               d="M 0,0 H 0.678 L 0.547,-0.633 0.559,-0.647 c 0.194,0.358 0.595,0.735 1.035,0.735 0.113,0 0.231,0 0.345,-0.02 L 1.787,-0.615 c -0.08,0.012 -0.168,0.025 -0.25,0.025 -0.74,0 -1.054,-0.564 -1.192,-1.217 L 0.044,-3.243 h -0.715 z"
               style="fill:#231f20;fill-opacity:1;fill-rule:nonzero;stroke:none"
               id="path2382" />
          </g>
          <g
             id="g2384"
             transform="translate(233.7428,47.393799)">
            <path
               d="M 0,0 H 0.714 L 0.043,-3.243 H -0.671 Z M 0.257,1.235 H 0.965 L 0.827,0.558 H 0.119 Z"
               style="fill:#231f20;fill-opacity:1;fill-rule:nonzero;stroke:none"
               id="path2386" />
          </g>
          <g
             id="g2388"
             transform="translate(234.7594,47.393799)">
            <path
               d="m 0,0 h 0.739 l 0.27,-2.364 H 1.023 L 2.277,0 H 3.03 L 1.235,-3.243 H 0.439 Z"
               style="fill:#231f20;fill-opacity:1;fill-rule:nonzero;stroke:none"
               id="path2390" />
          </g>
          <g
             id="g2392"
             transform="translate(240.6133,45.154907)">
            <path
               d="m 0,0 c -0.226,-0.753 -0.791,-1.092 -1.561,-1.092 -0.822,0 -1.419,0.539 -1.419,1.418 0,0.997 0.641,2.001 1.801,2.001 1.154,0 1.38,-0.86 1.38,-1.493 0,-0.157 -0.019,-0.295 -0.038,-0.402 H -2.252 C -2.264,0.358 -2.264,0.288 -2.264,0.226 c 0,-0.446 0.232,-0.753 0.771,-0.753 0.382,0 0.678,0.188 0.778,0.527 z m -0.52,0.903 c 0.006,0.075 0.006,0.138 0.006,0.2 0,0.383 -0.257,0.659 -0.685,0.659 -0.532,0 -0.838,-0.358 -0.984,-0.859 z"
               style="fill:#231f20;fill-opacity:1;fill-rule:nonzero;stroke:none"
               id="path2394" />
          </g>
          <g
             id="g2396"
             transform="translate(241.5432,47.393799)">
            <path
               d="M 0,0 H 0.678 L 0.546,-0.633 0.558,-0.647 c 0.194,0.358 0.596,0.735 1.035,0.735 0.113,0 0.232,0 0.345,-0.02 L 1.786,-0.615 c -0.08,0.012 -0.168,0.025 -0.25,0.025 -0.74,0 -1.054,-0.564 -1.191,-1.217 L 0.044,-3.243 h -0.716 z"
               style="fill:#231f20;fill-opacity:1;fill-rule:nonzero;stroke:none"
               id="path2398" />
          </g>
          <g
             id="g2400"
             transform="translate(245.46001,48.631699)">
            <path
               d="M 0,0 H 0.828 L 2.874,-3.301 H 2.886 V 0 H 3.633 V -4.481 H 2.805 L 0.766,-1.186 H 0.746 V -4.481 H 0 Z"
               style="fill:#231f20;fill-opacity:1;fill-rule:nonzero;stroke:none"
               id="path2402" />
          </g>
          <g
             id="g2404"
             transform="translate(252.5314,44.873093)">
            <path
               d="m 0,0 c 0,-0.088 0.011,-0.151 0.036,-0.189 0.022,-0.038 0.066,-0.056 0.133,-0.056 h 0.077 c 0.028,0 0.061,0.004 0.099,0.012 V -0.728 C 0.32,-0.736 0.289,-0.747 0.249,-0.757 0.209,-0.767 0.168,-0.776 0.126,-0.784 0.084,-0.794 0.042,-0.8 0,-0.804 -0.042,-0.808 -0.077,-0.81 -0.106,-0.81 c -0.147,0 -0.268,0.03 -0.365,0.088 -0.096,0.058 -0.159,0.161 -0.188,0.307 C -0.8,-0.553 -0.975,-0.653 -1.183,-0.716 -1.39,-0.778 -1.59,-0.81 -1.782,-0.81 c -0.146,0 -0.287,0.019 -0.421,0.059 -0.134,0.04 -0.251,0.099 -0.354,0.176 -0.103,0.078 -0.184,0.176 -0.244,0.295 -0.062,0.12 -0.091,0.259 -0.091,0.418 0,0.2 0.036,0.363 0.109,0.489 0.074,0.126 0.169,0.224 0.29,0.295 0.118,0.071 0.253,0.123 0.4,0.154 0.149,0.031 0.299,0.055 0.449,0.072 0.129,0.025 0.253,0.043 0.371,0.053 0.116,0.01 0.221,0.029 0.31,0.053 0.09,0.026 0.162,0.065 0.214,0.117 0.051,0.052 0.079,0.13 0.079,0.235 0,0.092 -0.023,0.167 -0.067,0.226 -0.044,0.059 -0.098,0.103 -0.164,0.135 -0.064,0.031 -0.136,0.052 -0.216,0.062 -0.078,0.011 -0.154,0.017 -0.226,0.017 -0.2,0 -0.365,-0.042 -0.495,-0.126 C -1.967,1.836 -2.042,1.707 -2.057,1.531 h -0.717 c 0.014,0.208 0.064,0.382 0.152,0.521 0.088,0.138 0.199,0.248 0.336,0.332 0.136,0.084 0.288,0.142 0.46,0.176 0.171,0.033 0.347,0.05 0.527,0.05 0.16,0 0.316,-0.017 0.471,-0.05 C -0.674,2.526 -0.533,2.472 -0.41,2.397 -0.288,2.322 -0.187,2.225 -0.113,2.105 -0.038,1.986 0,1.84 0,1.669 Z M -0.714,0.903 C -0.824,0.832 -0.958,0.789 -1.117,0.774 -1.275,0.76 -1.435,0.737 -1.594,0.709 -1.668,0.697 -1.742,0.678 -1.814,0.656 -1.884,0.632 -1.948,0.601 -2.002,0.561 -2.055,0.521 -2.098,0.469 -2.131,0.404 -2.162,0.339 -2.178,0.26 -2.178,0.169 c 0,-0.079 0.023,-0.147 0.07,-0.201 0.046,-0.054 0.101,-0.097 0.166,-0.128 0.065,-0.032 0.136,-0.053 0.213,-0.067 0.077,-0.012 0.149,-0.018 0.21,-0.018 0.08,0 0.166,0.01 0.258,0.032 0.092,0.02 0.179,0.056 0.26,0.106 0.082,0.05 0.15,0.114 0.205,0.192 0.053,0.076 0.082,0.171 0.082,0.285 z"
               style="fill:#231f20;fill-opacity:1;fill-rule:nonzero;stroke:none"
               id="path2406" />
          </g>
          <g
             id="g2408"
             transform="translate(252.86501,47.394897)">
            <path
               d="M 0,0 H 0.54 V 0.973 H 1.255 V 0 H 1.901 V -0.533 H 1.255 v -1.733 c 0,-0.074 0.003,-0.139 0.01,-0.194 0.006,-0.054 0.02,-0.1 0.043,-0.137 0.023,-0.038 0.057,-0.067 0.104,-0.085 0.046,-0.02 0.109,-0.029 0.188,-0.029 0.05,0 0.101,10e-4 0.151,0.003 0.049,0.002 0.1,0.01 0.15,0.023 V -3.238 C 1.822,-3.246 1.745,-3.254 1.668,-3.262 1.594,-3.271 1.517,-3.276 1.437,-3.276 c -0.188,0 -0.34,0.019 -0.455,0.055 -0.115,0.034 -0.205,0.087 -0.271,0.156 -0.064,0.069 -0.107,0.156 -0.132,0.26 -0.021,0.104 -0.035,0.224 -0.039,0.358 v 1.914 H 0 Z"
               style="fill:#231f20;fill-opacity:1;fill-rule:nonzero;stroke:none"
               id="path2410" />
          </g>
          <path
             d="m 255.186,48.632 h 0.715 v -0.678 h -0.715 z m 0,-1.237 h 0.715 v -3.244 h -0.715 z"
             style="fill:#231f20;fill-opacity:1;fill-rule:nonzero;stroke:none"
             id="path2412" />
          <g
             id="g2414"
             transform="translate(258.0547,44.063003)">
            <path
               d="m 0,0 c -0.259,0 -0.492,0.043 -0.693,0.129 -0.204,0.086 -0.376,0.204 -0.516,0.354 -0.139,0.151 -0.247,0.331 -0.319,0.54 -0.074,0.209 -0.111,0.44 -0.111,0.69 0,0.247 0.037,0.475 0.111,0.684 0.072,0.21 0.18,0.389 0.319,0.54 0.14,0.151 0.312,0.269 0.516,0.355 C -0.492,3.377 -0.259,3.42 0,3.42 0.259,3.42 0.489,3.377 0.693,3.292 0.895,3.206 1.067,3.088 1.207,2.937 1.348,2.786 1.454,2.607 1.528,2.397 1.6,2.188 1.637,1.96 1.637,1.713 1.637,1.463 1.6,1.232 1.528,1.023 1.454,0.814 1.348,0.634 1.207,0.483 1.067,0.333 0.895,0.215 0.693,0.129 0.489,0.043 0.259,0 0,0 m 0,0.565 c 0.158,0 0.297,0.034 0.413,0.1 C 0.53,0.732 0.627,0.82 0.702,0.928 0.778,1.038 0.833,1.16 0.869,1.296 0.904,1.432 0.921,1.571 0.921,1.713 0.921,1.851 0.904,1.99 0.869,2.128 0.833,2.265 0.778,2.388 0.702,2.494 0.627,2.602 0.53,2.688 0.413,2.755 0.297,2.822 0.158,2.856 0,2.856 -0.16,2.856 -0.298,2.822 -0.415,2.755 -0.531,2.688 -0.629,2.602 -0.703,2.494 -0.779,2.388 -0.834,2.265 -0.869,2.128 -0.906,1.99 -0.922,1.851 -0.922,1.713 -0.922,1.571 -0.906,1.432 -0.869,1.296 -0.834,1.16 -0.779,1.038 -0.703,0.928 -0.629,0.82 -0.531,0.732 -0.415,0.665 -0.298,0.599 -0.16,0.565 0,0.565"
               style="fill:#231f20;fill-opacity:1;fill-rule:nonzero;stroke:none"
               id="path2416" />
          </g>
          <g
             id="g2418"
             transform="translate(260.1821,47.394897)">
            <path
               d="m 0,0 h 0.677 v -0.476 l 0.012,-0.013 c 0.109,0.18 0.251,0.322 0.427,0.424 0.176,0.102 0.371,0.153 0.585,0.153 0.355,0 0.635,-0.092 0.84,-0.276 0.206,-0.184 0.307,-0.46 0.307,-0.828 V -3.244 H 2.134 v 2.04 C 2.124,-0.949 2.07,-0.764 1.971,-0.649 1.87,-0.534 1.712,-0.476 1.499,-0.476 1.377,-0.476 1.27,-0.498 1.174,-0.542 1.076,-0.586 0.995,-0.646 0.928,-0.724 0.861,-0.802 0.809,-0.893 0.771,-0.997 0.733,-1.102 0.714,-1.212 0.714,-1.33 V -3.244 H 0 Z"
               style="fill:#231f20;fill-opacity:1;fill-rule:nonzero;stroke:none"
               id="path2420" />
          </g>
          <g
             id="g2422"
             transform="translate(266.39371,44.873093)">
            <path
               d="m 0,0 c 0,-0.088 0.012,-0.151 0.035,-0.189 0.023,-0.038 0.067,-0.056 0.134,-0.056 h 0.077 c 0.028,0 0.061,0.004 0.099,0.012 V -0.728 C 0.32,-0.736 0.289,-0.747 0.249,-0.757 0.208,-0.767 0.167,-0.776 0.126,-0.784 0.084,-0.794 0.042,-0.8 0,-0.804 -0.042,-0.808 -0.077,-0.81 -0.106,-0.81 c -0.147,0 -0.268,0.03 -0.365,0.088 -0.096,0.058 -0.159,0.161 -0.188,0.307 C -0.8,-0.553 -0.975,-0.653 -1.183,-0.716 -1.39,-0.778 -1.59,-0.81 -1.782,-0.81 c -0.146,0 -0.287,0.019 -0.421,0.059 -0.134,0.04 -0.251,0.099 -0.354,0.176 -0.103,0.078 -0.184,0.176 -0.244,0.295 -0.062,0.12 -0.091,0.259 -0.091,0.418 0,0.2 0.036,0.363 0.109,0.489 0.073,0.126 0.169,0.224 0.289,0.295 0.119,0.071 0.254,0.123 0.401,0.154 0.149,0.031 0.298,0.055 0.449,0.072 0.13,0.025 0.253,0.043 0.37,0.053 0.117,0.01 0.221,0.029 0.311,0.053 0.09,0.026 0.162,0.065 0.213,0.117 0.052,0.052 0.08,0.13 0.08,0.235 0,0.092 -0.023,0.167 -0.067,0.226 -0.044,0.059 -0.099,0.103 -0.164,0.135 -0.064,0.031 -0.137,0.052 -0.216,0.062 -0.078,0.011 -0.155,0.017 -0.226,0.017 -0.2,0 -0.366,-0.042 -0.496,-0.126 C -1.968,1.836 -2.042,1.707 -2.058,1.531 h -0.716 c 0.014,0.208 0.063,0.382 0.151,0.521 0.088,0.138 0.2,0.248 0.337,0.332 0.136,0.084 0.288,0.142 0.46,0.176 0.171,0.033 0.347,0.05 0.527,0.05 0.159,0 0.316,-0.017 0.471,-0.05 C -0.674,2.526 -0.533,2.472 -0.41,2.397 -0.288,2.322 -0.187,2.225 -0.113,2.105 -0.038,1.986 0,1.84 0,1.669 Z M -0.714,0.903 C -0.824,0.832 -0.958,0.789 -1.117,0.774 -1.275,0.76 -1.435,0.737 -1.594,0.709 -1.668,0.697 -1.742,0.678 -1.814,0.656 -1.885,0.632 -1.947,0.601 -2.002,0.561 -2.056,0.521 -2.099,0.469 -2.131,0.404 -2.162,0.339 -2.178,0.26 -2.178,0.169 c 0,-0.079 0.023,-0.147 0.07,-0.201 0.047,-0.054 0.101,-0.097 0.166,-0.128 0.065,-0.032 0.136,-0.053 0.213,-0.067 0.078,-0.012 0.149,-0.018 0.21,-0.018 0.08,0 0.166,0.01 0.258,0.032 0.092,0.02 0.179,0.056 0.26,0.106 0.082,0.05 0.15,0.114 0.205,0.192 0.053,0.076 0.082,0.171 0.082,0.285 z"
               style="fill:#231f20;fill-opacity:1;fill-rule:nonzero;stroke:none"
               id="path2424" />
          </g>
          <path
             d="m 267.071,48.632 h 0.714 v -4.481 h -0.714 z"
             style="fill:#231f20;fill-opacity:1;fill-rule:nonzero;stroke:none"
             id="path2426" />
          <path
             d="m 270.184,48.632 h 0.784 v -4.481 h -0.784 z"
             style="fill:#231f20;fill-opacity:1;fill-rule:nonzero;stroke:none"
             id="path2428" />
          <g
             id="g2430"
             transform="translate(271.7153,47.394897)">
            <path
               d="m 0,0 h 0.678 v -0.476 l 0.011,-0.013 c 0.11,0.18 0.252,0.322 0.428,0.424 0.175,0.102 0.37,0.153 0.584,0.153 0.355,0 0.636,-0.092 0.841,-0.276 0.205,-0.184 0.307,-0.46 0.307,-0.828 V -3.244 H 2.134 v 2.04 c -0.01,0.255 -0.063,0.44 -0.164,0.555 -0.1,0.115 -0.257,0.173 -0.47,0.173 -0.122,0 -0.23,-0.022 -0.326,-0.066 C 1.076,-0.586 0.995,-0.646 0.929,-0.724 0.861,-0.802 0.81,-0.893 0.771,-0.997 0.733,-1.102 0.715,-1.212 0.715,-1.33 V -3.244 H 0 Z"
               style="fill:#231f20;fill-opacity:1;fill-rule:nonzero;stroke:none"
               id="path2432" />
          </g>
          <g
             id="g2434"
             transform="translate(275.7514,45.192795)">
            <path
               d="m 0,0 c 0.02,-0.209 0.099,-0.355 0.237,-0.439 0.14,-0.084 0.304,-0.126 0.497,-0.126 0.066,0 0.142,0.005 0.228,0.015 0.086,0.011 0.168,0.031 0.243,0.061 0.074,0.028 0.137,0.071 0.185,0.128 0.048,0.057 0.069,0.131 0.065,0.223 C 1.451,-0.046 1.418,0.03 1.354,0.088 1.293,0.146 1.212,0.193 1.114,0.229 1.015,0.265 0.904,0.295 0.778,0.32 0.653,0.345 0.524,0.372 0.394,0.401 0.262,0.431 0.132,0.467 0.008,0.509 -0.115,0.549 -0.225,0.607 -0.323,0.677 -0.423,0.749 -0.5,0.84 -0.56,0.951 c -0.057,0.11 -0.087,0.247 -0.087,0.41 0,0.176 0.042,0.324 0.128,0.443 0.086,0.119 0.196,0.215 0.328,0.289 0.131,0.073 0.278,0.124 0.439,0.153 0.16,0.03 0.315,0.044 0.46,0.044 0.167,0 0.328,-0.017 0.48,-0.053 C 1.342,2.201 1.48,2.144 1.603,2.064 1.727,1.985 1.829,1.881 1.911,1.754 1.992,1.626 2.044,1.473 2.064,1.293 H 1.317 C 1.283,1.464 1.206,1.579 1.083,1.637 0.959,1.697 0.818,1.726 0.658,1.726 0.609,1.726 0.549,1.721 0.48,1.713 0.41,1.705 0.346,1.689 0.286,1.666 0.224,1.643 0.174,1.61 0.132,1.566 0.089,1.522 0.069,1.464 0.069,1.393 0.069,1.305 0.098,1.234 0.16,1.18 0.221,1.126 0.301,1.081 0.398,1.045 0.498,1.009 0.611,0.978 0.736,0.954 0.862,0.928 0.991,0.902 1.126,0.872 1.256,0.843 1.384,0.807 1.51,0.765 1.636,0.723 1.748,0.667 1.846,0.596 1.945,0.525 2.025,0.435 2.087,0.326 2.146,0.217 2.178,0.084 2.178,-0.076 2.178,-0.268 2.134,-0.431 2.046,-0.565 1.957,-0.699 1.843,-0.808 1.702,-0.892 1.563,-0.975 1.406,-1.036 1.233,-1.073 1.062,-1.111 0.892,-1.13 0.725,-1.13 c -0.206,0 -0.396,0.024 -0.57,0.07 -0.174,0.046 -0.326,0.115 -0.453,0.209 -0.128,0.095 -0.228,0.212 -0.302,0.352 -0.072,0.14 -0.111,0.306 -0.115,0.499 z"
               style="fill:#231f20;fill-opacity:1;fill-rule:nonzero;stroke:none"
               id="path2436" />
          </g>
          <g
             id="g2438"
             transform="translate(278.02831,47.394897)">
            <path
               d="M 0,0 H 0.541 V 0.973 H 1.255 V 0 H 1.902 V -0.533 H 1.255 v -1.733 c 0,-0.074 0.003,-0.139 0.01,-0.194 0.006,-0.054 0.021,-0.1 0.043,-0.137 0.025,-0.038 0.058,-0.067 0.105,-0.085 0.046,-0.02 0.108,-0.029 0.188,-0.029 0.049,0 0.1,10e-4 0.15,0.003 0.05,0.002 0.101,0.01 0.151,0.023 V -3.238 C 1.822,-3.246 1.745,-3.254 1.669,-3.262 1.595,-3.271 1.517,-3.276 1.437,-3.276 c -0.187,0 -0.34,0.019 -0.454,0.055 -0.116,0.034 -0.206,0.087 -0.271,0.156 -0.065,0.069 -0.108,0.156 -0.132,0.26 -0.022,0.104 -0.035,0.224 -0.039,0.358 v 1.914 H 0 Z"
               style="fill:#231f20;fill-opacity:1;fill-rule:nonzero;stroke:none"
               id="path2440" />
          </g>
          <path
             d="m 280.35,48.632 h 0.715 v -0.678 h -0.715 z m 0,-1.237 h 0.715 v -3.244 h -0.715 z"
             style="fill:#231f20;fill-opacity:1;fill-rule:nonzero;stroke:none"
             id="path2442" />
          <g
             id="g2444"
             transform="translate(281.4108,47.394897)">
            <path
               d="M 0,0 H 0.54 V 0.973 H 1.255 V 0 H 1.901 V -0.533 H 1.255 v -1.733 c 0,-0.074 0.003,-0.139 0.009,-0.194 0.007,-0.054 0.021,-0.1 0.044,-0.137 0.023,-0.038 0.057,-0.067 0.104,-0.085 0.046,-0.02 0.109,-0.029 0.188,-0.029 0.05,0 0.101,10e-4 0.151,0.003 0.049,0.002 0.1,0.01 0.15,0.023 V -3.238 C 1.822,-3.246 1.745,-3.254 1.668,-3.262 1.594,-3.271 1.517,-3.276 1.437,-3.276 c -0.188,0 -0.34,0.019 -0.455,0.055 -0.115,0.034 -0.205,0.087 -0.271,0.156 -0.064,0.069 -0.108,0.156 -0.132,0.26 -0.022,0.104 -0.035,0.224 -0.039,0.358 v 1.914 H 0 Z"
               style="fill:#231f20;fill-opacity:1;fill-rule:nonzero;stroke:none"
               id="path2446" />
          </g>
          <g
             id="g2448"
             transform="translate(286.56281,44.151001)">
            <path
               d="M 0,0 H -0.702 V 0.451 H -0.714 C -0.802,0.289 -0.933,0.158 -1.107,0.059 -1.28,-0.039 -1.458,-0.088 -1.638,-0.088 c -0.426,0 -0.734,0.105 -0.925,0.317 -0.19,0.211 -0.285,0.53 -0.285,0.957 v 2.058 h 0.714 V 1.255 c 0,-0.285 0.055,-0.485 0.165,-0.602 0.107,-0.118 0.261,-0.176 0.457,-0.176 0.151,0 0.277,0.022 0.376,0.069 0.101,0.046 0.182,0.108 0.246,0.185 0.062,0.078 0.107,0.171 0.135,0.279 0.026,0.109 0.041,0.226 0.041,0.351 V 3.244 H 0 Z"
               style="fill:#231f20;fill-opacity:1;fill-rule:nonzero;stroke:none"
               id="path2450" />
          </g>
        </g>
      </g>
      <g
         id="g2452"
         transform="matrix(0.35277777,0,0,-0.35277777,512.26422,559.80313)">
        <g
           id="g2454"
           clip-path="url(#clipPath2458)">
          <g
             id="g2460"
             transform="translate(286.8829,47.394897)">
            <path
               d="M 0,0 H 0.541 V 0.973 H 1.255 V 0 H 1.902 V -0.533 H 1.255 v -1.733 c 0,-0.074 0.003,-0.139 0.01,-0.194 0.006,-0.054 0.021,-0.1 0.043,-0.137 0.024,-0.038 0.058,-0.067 0.105,-0.085 0.046,-0.02 0.108,-0.029 0.187,-0.029 0.05,0 0.101,10e-4 0.151,0.003 0.05,0.002 0.101,0.01 0.151,0.023 V -3.238 C 1.822,-3.246 1.745,-3.254 1.669,-3.262 1.595,-3.271 1.517,-3.276 1.437,-3.276 c -0.188,0 -0.34,0.019 -0.454,0.055 -0.116,0.034 -0.206,0.087 -0.271,0.156 -0.065,0.069 -0.109,0.156 -0.131,0.26 -0.024,0.104 -0.036,0.224 -0.04,0.358 v 1.914 H 0 Z"
               style="fill:#231f20;fill-opacity:1;fill-rule:nonzero;stroke:none"
               id="path2462" />
          </g>
          <g
             id="g2464"
             transform="translate(289.7435,45.588104)">
            <path
               d="m 0,0 c 0,-0.126 0.019,-0.247 0.054,-0.364 0.035,-0.117 0.089,-0.219 0.16,-0.307 0.072,-0.088 0.161,-0.158 0.27,-0.211 0.109,-0.053 0.239,-0.078 0.388,-0.078 0.21,0 0.379,0.045 0.506,0.135 0.128,0.089 0.223,0.224 0.286,0.404 H 2.342 C 2.304,-0.597 2.239,-0.753 2.147,-0.891 2.055,-1.03 1.944,-1.145 1.815,-1.239 1.685,-1.334 1.54,-1.405 1.378,-1.452 1.217,-1.501 1.049,-1.525 0.872,-1.525 c -0.254,0 -0.481,0.042 -0.676,0.126 -0.198,0.083 -0.363,0.2 -0.5,0.351 -0.135,0.15 -0.238,0.33 -0.308,0.539 -0.068,0.21 -0.102,0.439 -0.102,0.691 0,0.229 0.036,0.448 0.109,0.655 0.074,0.208 0.178,0.39 0.314,0.547 0.136,0.156 0.3,0.281 0.493,0.373 0.191,0.092 0.409,0.138 0.652,0.138 0.256,0 0.485,-0.054 0.688,-0.16 C 1.743,1.628 1.913,1.487 2.047,1.311 2.18,1.136 2.278,0.933 2.339,0.706 2.398,0.478 2.415,0.242 2.386,0 Z M 1.67,0.471 C 1.662,0.583 1.638,0.692 1.598,0.797 1.558,0.902 1.504,0.993 1.435,1.07 1.366,1.147 1.282,1.21 1.184,1.258 1.086,1.306 0.976,1.331 0.854,1.331 0.729,1.331 0.615,1.308 0.512,1.264 0.41,1.22 0.322,1.16 0.249,1.083 0.175,1.005 0.117,0.914 0.073,0.81 0.029,0.705 0.004,0.592 0,0.471 Z"
               style="fill:#231f20;fill-opacity:1;fill-rule:nonzero;stroke:none"
               id="path2466" />
          </g>
        </g>
      </g>
      <g
         id="g2476"
         transform="matrix(0.35277777,0,0,-0.35277777,575.31671,547.01272)"
         clip-path="url(#clipPath3605)">
        <path
           d="m 0,0 c -0.259,0 -0.491,0.043 -0.694,0.129 -0.203,0.086 -0.374,0.204 -0.514,0.354 -0.14,0.151 -0.248,0.331 -0.32,0.54 -0.074,0.209 -0.11,0.44 -0.11,0.69 0,0.247 0.036,0.475 0.11,0.684 0.072,0.21 0.18,0.39 0.32,0.54 0.14,0.151 0.311,0.269 0.514,0.355 C -0.491,3.377 -0.259,3.42 0,3.42 0.259,3.42 0.49,3.377 0.693,3.292 0.896,3.206 1.067,3.088 1.207,2.937 1.348,2.787 1.454,2.607 1.528,2.397 1.6,2.188 1.637,1.96 1.637,1.713 1.637,1.463 1.6,1.232 1.528,1.023 1.454,0.814 1.348,0.634 1.207,0.483 1.067,0.333 0.896,0.215 0.693,0.129 0.49,0.043 0.259,0 0,0 m 0,0.565 c 0.158,0 0.297,0.034 0.414,0.1 0.117,0.067 0.213,0.155 0.289,0.263 0.075,0.11 0.13,0.232 0.166,0.368 0.035,0.136 0.053,0.275 0.053,0.417 0,0.138 -0.018,0.277 -0.053,0.415 C 0.833,2.266 0.778,2.388 0.703,2.494 0.627,2.602 0.531,2.688 0.414,2.755 0.297,2.822 0.158,2.856 0,2.856 -0.159,2.856 -0.297,2.822 -0.415,2.755 -0.531,2.688 -0.628,2.602 -0.703,2.494 -0.778,2.388 -0.833,2.266 -0.869,2.128 -0.905,1.99 -0.922,1.851 -0.922,1.713 -0.922,1.571 -0.905,1.432 -0.869,1.296 -0.833,1.16 -0.778,1.038 -0.703,0.928 -0.628,0.82 -0.531,0.732 -0.415,0.665 -0.297,0.599 -0.159,0.565 0,0.565"
           style="fill:#231f20;fill-opacity:1;fill-rule:nonzero;stroke:none"
           id="path2478" />
      </g>
      <g
         id="g2480"
         transform="matrix(0.35277777,0,0,-0.35277777,575.95415,545.8373)"
         clip-path="url(#clipPath3601)">
        <path
           d="m 0,0 h 0.534 v 0.271 c 0,0.204 0.025,0.37 0.075,0.498 0.05,0.128 0.117,0.226 0.201,0.295 0.084,0.069 0.179,0.115 0.285,0.138 0.107,0.023 0.218,0.035 0.336,0.035 0.23,0 0.397,-0.015 0.502,-0.044 V 0.634 C 1.888,0.647 1.837,0.656 1.785,0.663 1.733,0.669 1.672,0.672 1.601,0.672 1.505,0.672 1.422,0.649 1.352,0.603 1.284,0.557 1.249,0.467 1.249,0.333 V 0 H 1.858 V -0.533 H 1.249 V -3.244 H 0.534 v 2.711 H 0 Z"
           style="fill:#231f20;fill-opacity:1;fill-rule:nonzero;stroke:none"
           id="path2482" />
      </g>
      <g
         id="g2484"
         transform="matrix(0.35277777,0,0,-0.35277777,578.40468,545.90362)"
         clip-path="url(#clipPath3597)">
        <path
           d="m 0,0 c -0.033,0.13 -0.08,0.249 -0.138,0.357 -0.058,0.11 -0.134,0.204 -0.226,0.283 -0.092,0.08 -0.2,0.141 -0.322,0.185 -0.124,0.044 -0.268,0.067 -0.43,0.067 -0.239,0 -0.446,-0.049 -0.618,-0.145 C -1.908,0.651 -2.05,0.522 -2.158,0.361 -2.267,0.2 -2.348,0.016 -2.4,-0.188 c -0.052,-0.205 -0.079,-0.415 -0.079,-0.628 0,-0.213 0.027,-0.422 0.079,-0.627 0.052,-0.206 0.133,-0.388 0.242,-0.55 0.108,-0.16 0.25,-0.289 0.424,-0.385 0.172,-0.097 0.379,-0.145 0.618,-0.145 0.175,0 0.33,0.031 0.463,0.091 0.134,0.061 0.25,0.145 0.346,0.251 0.096,0.108 0.171,0.231 0.225,0.374 0.055,0.142 0.091,0.294 0.108,0.458 H 0.791 C 0.774,-1.617 0.717,-1.862 0.619,-2.084 0.52,-2.305 0.387,-2.496 0.22,-2.658 0.053,-2.819 -0.144,-2.943 -0.37,-3.03 c -0.225,-0.088 -0.475,-0.132 -0.746,-0.132 -0.335,0 -0.636,0.061 -0.901,0.185 -0.266,0.123 -0.49,0.291 -0.674,0.504 -0.185,0.214 -0.326,0.463 -0.424,0.748 -0.098,0.284 -0.148,0.587 -0.148,0.909 0,0.319 0.05,0.62 0.148,0.904 0.098,0.285 0.239,0.533 0.424,0.747 0.184,0.213 0.408,0.383 0.674,0.508 0.265,0.126 0.566,0.188 0.901,0.188 0.25,0 0.487,-0.035 0.708,-0.103 C -0.186,1.358 0.01,1.258 0.179,1.127 0.348,0.995 0.485,0.835 0.59,0.647 0.695,0.459 0.76,0.243 0.784,0 Z"
           style="fill:#231f20;fill-opacity:1;fill-rule:nonzero;stroke:none"
           id="path2486" />
      </g>
      <g
         id="g2488"
         transform="matrix(0.35277777,0,0,-0.35277777,578.8634,545.40098)"
         clip-path="url(#clipPath3593)">
        <path
           d="m 0,0 h 0.715 v -1.663 h 0.012 c 0.088,0.146 0.219,0.269 0.392,0.367 0.174,0.098 0.368,0.147 0.581,0.147 0.356,0 0.636,-0.092 0.841,-0.276 0.205,-0.184 0.308,-0.459 0.308,-0.828 V -4.481 H 2.134 v 2.04 C 2.124,-2.186 2.07,-2.001 1.97,-1.885 1.87,-1.771 1.713,-1.713 1.499,-1.713 1.378,-1.713 1.27,-1.735 1.173,-1.779 1.077,-1.823 0.995,-1.883 0.928,-1.961 0.861,-2.039 0.809,-2.129 0.771,-2.234 0.733,-2.339 0.715,-2.449 0.715,-2.567 V -4.481 H 0 Z"
           style="fill:#231f20;fill-opacity:1;fill-rule:nonzero;stroke:none"
           id="path2490" />
      </g>
      <path
         d="m 580.10299,545.40098 h 0.25224 v 0.23918 h -0.25224 z m 0,0.43639 h 0.25224 v 1.14441 h -0.25224 z"
         style="fill:#231f20;fill-opacity:1;fill-rule:nonzero;stroke:none;stroke-width:0.352778"
         id="path2492" />
      <path
         d="m 580.59865,545.40098 h 0.25223 v 1.5808 h -0.25223 z"
         style="fill:#231f20;fill-opacity:1;fill-rule:nonzero;stroke:none;stroke-width:0.352778"
         id="path2494" />
      <g
         id="g2496"
         transform="matrix(0.35277777,0,0,-0.35277777,582.16392,546.98171)"
         clip-path="url(#clipPath3589)">
        <path
           d="M 0,0 H -0.678 V 0.439 H -0.69 C -0.786,0.251 -0.927,0.117 -1.111,0.035 c -0.184,-0.082 -0.378,-0.123 -0.583,-0.123 -0.256,0 -0.478,0.045 -0.668,0.135 -0.191,0.09 -0.349,0.212 -0.474,0.368 -0.126,0.154 -0.22,0.337 -0.283,0.548 -0.063,0.212 -0.094,0.438 -0.094,0.681 0,0.293 0.04,0.546 0.119,0.759 0.08,0.214 0.185,0.39 0.317,0.527 0.132,0.138 0.283,0.24 0.451,0.305 0.17,0.065 0.342,0.097 0.518,0.097 0.101,0 0.203,-0.009 0.308,-0.028 0.105,-0.019 0.205,-0.049 0.301,-0.091 0.096,-0.042 0.186,-0.095 0.267,-0.16 0.081,-0.064 0.15,-0.141 0.204,-0.229 h 0.012 V 4.481 H 0 Z m -2.498,1.587 c 0,-0.138 0.018,-0.273 0.054,-0.407 0.035,-0.134 0.09,-0.254 0.162,-0.358 0.074,-0.105 0.167,-0.188 0.28,-0.251 0.113,-0.062 0.246,-0.094 0.401,-0.094 0.16,0 0.297,0.034 0.411,0.1 0.116,0.067 0.21,0.155 0.283,0.264 0.074,0.109 0.128,0.231 0.163,0.367 0.035,0.136 0.054,0.275 0.054,0.417 0,0.361 -0.081,0.64 -0.242,0.842 -0.161,0.2 -0.379,0.301 -0.656,0.301 -0.168,0 -0.309,-0.035 -0.423,-0.104 C -2.126,2.595 -2.22,2.505 -2.294,2.394 -2.368,2.283 -2.42,2.157 -2.45,2.017 -2.482,1.877 -2.498,1.734 -2.498,1.587"
           style="fill:#231f20;fill-opacity:1;fill-rule:nonzero;stroke:none"
           id="path2498" />
      </g>
      <g
         id="g2500"
         transform="matrix(0.35277777,0,0,-0.35277777,583.00526,545.40098)"
         clip-path="url(#clipPath3585)">
        <path
           d="M 0,0 H 0.784 V -1.782 H 2.823 V 0 H 3.608 V -4.481 H 2.823 V -2.46 H 0.784 V -4.481 H 0 Z"
           style="fill:#231f20;fill-opacity:1;fill-rule:nonzero;stroke:none"
           id="path2502" />
      </g>
      <g
         id="g2504"
         transform="matrix(0.35277777,0,0,-0.35277777,584.73376,546.47469)"
         clip-path="url(#clipPath3581)">
        <path
           d="m 0,0 c 0,-0.126 0.018,-0.247 0.054,-0.364 0.035,-0.117 0.089,-0.219 0.159,-0.307 0.072,-0.088 0.162,-0.158 0.271,-0.211 0.108,-0.053 0.238,-0.078 0.388,-0.078 0.21,0 0.378,0.045 0.506,0.135 0.128,0.089 0.223,0.224 0.286,0.404 H 2.341 C 2.303,-0.597 2.239,-0.753 2.147,-0.891 2.055,-1.03 1.944,-1.145 1.814,-1.239 1.684,-1.334 1.539,-1.405 1.378,-1.453 1.216,-1.501 1.049,-1.525 0.872,-1.525 c -0.254,0 -0.481,0.042 -0.677,0.126 -0.197,0.083 -0.363,0.2 -0.499,0.351 -0.136,0.15 -0.238,0.33 -0.308,0.539 -0.068,0.21 -0.103,0.439 -0.103,0.691 0,0.23 0.037,0.448 0.11,0.655 0.073,0.208 0.178,0.39 0.314,0.547 0.136,0.156 0.3,0.281 0.492,0.373 0.192,0.092 0.41,0.138 0.653,0.138 0.255,0 0.484,-0.054 0.687,-0.16 C 1.743,1.628 1.912,1.487 2.046,1.311 2.18,1.136 2.278,0.933 2.338,0.706 2.398,0.478 2.415,0.242 2.385,0 Z M 1.67,0.471 C 1.662,0.583 1.637,0.692 1.597,0.797 1.558,0.902 1.503,0.993 1.434,1.07 1.365,1.147 1.282,1.21 1.184,1.258 1.085,1.306 0.975,1.331 0.854,1.331 0.728,1.331 0.615,1.308 0.512,1.264 0.41,1.22 0.322,1.16 0.248,1.083 0.175,1.005 0.116,0.914 0.072,0.81 0.029,0.705 0.004,0.592 0,0.471 Z"
           style="fill:#231f20;fill-opacity:1;fill-rule:nonzero;stroke:none"
           id="path2506" />
      </g>
      <g
         id="g2508"
         transform="matrix(0.35277777,0,0,-0.35277777,586.68886,546.72693)"
         clip-path="url(#clipPath3577)">
        <path
           d="m 0,0 c 0,-0.088 0.011,-0.151 0.035,-0.189 0.022,-0.038 0.067,-0.056 0.134,-0.056 h 0.076 c 0.029,0 0.063,0.004 0.1,0.012 V -0.728 C 0.32,-0.736 0.288,-0.747 0.248,-0.757 0.208,-0.767 0.168,-0.776 0.126,-0.784 0.084,-0.794 0.042,-0.8 0,-0.804 -0.042,-0.808 -0.078,-0.81 -0.106,-0.81 c -0.147,0 -0.269,0.03 -0.365,0.088 -0.096,0.058 -0.159,0.161 -0.188,0.307 -0.142,-0.138 -0.316,-0.238 -0.524,-0.301 -0.207,-0.062 -0.407,-0.094 -0.599,-0.094 -0.146,0 -0.287,0.019 -0.421,0.059 -0.134,0.04 -0.251,0.099 -0.355,0.176 -0.102,0.078 -0.183,0.176 -0.244,0.295 -0.061,0.12 -0.091,0.259 -0.091,0.418 0,0.2 0.036,0.363 0.11,0.489 0.073,0.126 0.169,0.224 0.289,0.295 0.118,0.071 0.253,0.123 0.401,0.154 0.148,0.031 0.298,0.055 0.449,0.072 0.129,0.025 0.253,0.043 0.37,0.053 0.117,0.01 0.221,0.029 0.311,0.053 0.09,0.026 0.161,0.065 0.213,0.117 0.052,0.052 0.079,0.13 0.079,0.235 0,0.092 -0.022,0.167 -0.066,0.226 -0.044,0.059 -0.098,0.103 -0.164,0.135 -0.064,0.031 -0.137,0.052 -0.216,0.062 -0.079,0.011 -0.155,0.017 -0.226,0.017 -0.2,0 -0.366,-0.042 -0.495,-0.126 -0.13,-0.084 -0.204,-0.213 -0.22,-0.389 h -0.716 c 0.013,0.208 0.063,0.382 0.151,0.521 0.088,0.138 0.199,0.248 0.336,0.332 0.136,0.084 0.289,0.142 0.461,0.176 0.171,0.033 0.347,0.05 0.527,0.05 0.159,0 0.315,-0.017 0.471,-0.05 C -0.674,2.526 -0.534,2.472 -0.411,2.397 -0.288,2.322 -0.188,2.225 -0.113,2.105 -0.038,1.986 0,1.84 0,1.669 Z M -0.715,0.903 C -0.824,0.832 -0.958,0.789 -1.117,0.774 -1.276,0.76 -1.435,0.737 -1.594,0.709 -1.669,0.697 -1.742,0.678 -1.814,0.656 -1.884,0.632 -1.948,0.601 -2.002,0.561 -2.056,0.521 -2.099,0.469 -2.131,0.404 -2.162,0.339 -2.178,0.26 -2.178,0.169 c 0,-0.079 0.023,-0.147 0.07,-0.201 0.046,-0.054 0.101,-0.097 0.165,-0.128 0.066,-0.032 0.136,-0.053 0.214,-0.067 0.077,-0.012 0.148,-0.018 0.21,-0.018 0.08,0 0.166,0.01 0.258,0.032 0.092,0.02 0.178,0.056 0.26,0.106 0.082,0.05 0.149,0.114 0.204,0.192 0.055,0.076 0.082,0.171 0.082,0.285 z"
           style="fill:#231f20;fill-opacity:1;fill-rule:nonzero;stroke:none"
           id="path2510" />
      </g>
      <path
         d="m 586.92783,545.40098 h 0.25224 v 1.5808 h -0.25224 z"
         style="fill:#231f20;fill-opacity:1;fill-rule:nonzero;stroke:none;stroke-width:0.352778"
         id="path2512" />
      <g
         id="g2514"
         transform="matrix(0.35277777,0,0,-0.35277777,587.30213,545.8373)"
         clip-path="url(#clipPath3573)">
        <path
           d="M 0,0 H 0.54 V 0.973 H 1.255 V 0 H 1.902 V -0.533 H 1.255 v -1.732 c 0,-0.075 0.003,-0.14 0.009,-0.195 0.007,-0.054 0.022,-0.1 0.044,-0.137 0.024,-0.038 0.058,-0.067 0.105,-0.085 0.046,-0.02 0.108,-0.029 0.188,-0.029 0.05,0 0.1,10e-4 0.15,0.003 0.05,0.002 0.101,0.011 0.151,0.023 V -3.238 C 1.822,-3.246 1.745,-3.254 1.669,-3.262 1.595,-3.271 1.517,-3.276 1.437,-3.276 c -0.188,0 -0.34,0.019 -0.454,0.055 -0.116,0.034 -0.206,0.087 -0.271,0.156 -0.064,0.069 -0.108,0.156 -0.132,0.26 -0.022,0.104 -0.036,0.224 -0.04,0.358 v 1.914 H 0 Z"
           style="fill:#231f20;fill-opacity:1;fill-rule:nonzero;stroke:none"
           id="path2516" />
      </g>
      <g
         id="g2518"
         transform="matrix(0.35277777,0,0,-0.35277777,588.11465,545.40098)"
         clip-path="url(#clipPath3569)">
        <path
           d="m 0,0 h 0.715 v -1.663 h 0.012 c 0.088,0.146 0.219,0.269 0.392,0.367 0.174,0.098 0.368,0.147 0.582,0.147 0.355,0 0.635,-0.092 0.84,-0.276 0.206,-0.184 0.308,-0.459 0.308,-0.828 V -4.481 H 2.134 v 2.04 C 2.124,-2.186 2.07,-2.001 1.97,-1.885 1.87,-1.771 1.713,-1.713 1.499,-1.713 1.378,-1.713 1.27,-1.735 1.174,-1.779 1.077,-1.823 0.995,-1.883 0.928,-1.961 0.861,-2.039 0.809,-2.129 0.771,-2.234 0.733,-2.339 0.715,-2.449 0.715,-2.567 V -4.481 H 0 Z"
           style="fill:#231f20;fill-opacity:1;fill-rule:nonzero;stroke:none"
           id="path2520" />
      </g>
      <g
         id="g2522"
         transform="matrix(0.35277777,0,0,-0.35277777,590.95941,546.72693)"
         clip-path="url(#clipPath3565)">
        <path
           d="M 0,0 C 0,-0.088 0.011,-0.151 0.035,-0.189 0.057,-0.227 0.102,-0.245 0.17,-0.245 h 0.075 c 0.029,0 0.062,0.004 0.1,0.012 V -0.728 C 0.32,-0.736 0.288,-0.747 0.248,-0.757 0.208,-0.767 0.167,-0.776 0.126,-0.784 0.084,-0.794 0.042,-0.8 0,-0.804 -0.042,-0.808 -0.078,-0.81 -0.106,-0.81 c -0.147,0 -0.269,0.03 -0.365,0.088 -0.096,0.058 -0.159,0.161 -0.188,0.307 -0.142,-0.138 -0.316,-0.238 -0.524,-0.301 -0.207,-0.062 -0.407,-0.094 -0.599,-0.094 -0.146,0 -0.287,0.019 -0.421,0.059 -0.134,0.04 -0.251,0.099 -0.355,0.176 -0.102,0.078 -0.183,0.176 -0.244,0.295 -0.061,0.12 -0.091,0.259 -0.091,0.418 0,0.2 0.036,0.363 0.11,0.489 0.073,0.126 0.169,0.224 0.289,0.295 0.118,0.071 0.253,0.123 0.401,0.154 0.148,0.031 0.298,0.055 0.448,0.072 0.13,0.025 0.254,0.043 0.371,0.053 0.117,0.01 0.221,0.029 0.311,0.053 0.09,0.026 0.161,0.065 0.213,0.117 0.052,0.052 0.079,0.13 0.079,0.235 0,0.092 -0.023,0.167 -0.066,0.226 -0.044,0.059 -0.099,0.103 -0.164,0.135 -0.064,0.031 -0.137,0.052 -0.216,0.062 -0.079,0.011 -0.155,0.017 -0.226,0.017 -0.2,0 -0.366,-0.042 -0.496,-0.126 C -1.968,1.836 -2.042,1.707 -2.058,1.531 h -0.716 c 0.013,0.208 0.063,0.382 0.151,0.521 0.088,0.138 0.199,0.248 0.336,0.332 0.136,0.084 0.289,0.142 0.461,0.176 0.171,0.033 0.347,0.05 0.527,0.05 0.159,0 0.315,-0.017 0.471,-0.05 C -0.674,2.526 -0.534,2.472 -0.411,2.397 -0.288,2.322 -0.188,2.225 -0.113,2.105 -0.038,1.986 0,1.84 0,1.669 Z M -0.715,0.903 C -0.824,0.832 -0.958,0.789 -1.117,0.774 -1.276,0.76 -1.435,0.737 -1.594,0.709 -1.669,0.697 -1.743,0.678 -1.814,0.656 -1.885,0.632 -1.948,0.601 -2.002,0.561 -2.056,0.521 -2.099,0.469 -2.131,0.404 -2.162,0.339 -2.178,0.26 -2.178,0.169 c 0,-0.079 0.023,-0.147 0.07,-0.201 0.046,-0.054 0.101,-0.097 0.165,-0.128 0.066,-0.032 0.136,-0.053 0.214,-0.067 0.077,-0.012 0.148,-0.018 0.21,-0.018 0.08,0 0.166,0.01 0.258,0.032 0.091,0.02 0.178,0.056 0.26,0.106 0.082,0.05 0.149,0.114 0.204,0.192 0.054,0.076 0.082,0.171 0.082,0.285 z"
           style="fill:#231f20;fill-opacity:1;fill-rule:nonzero;stroke:none"
           id="path2524" />
      </g>
      <g
         id="g2526"
         transform="matrix(0.35277777,0,0,-0.35277777,591.19182,545.8373)"
         clip-path="url(#clipPath3561)">
        <path
           d="m 0,0 h 0.677 v -0.476 l 0.012,-0.013 c 0.11,0.18 0.252,0.321 0.427,0.424 0.176,0.102 0.371,0.153 0.585,0.153 0.355,0 0.635,-0.092 0.84,-0.276 0.205,-0.184 0.308,-0.46 0.308,-0.828 V -3.244 H 2.134 v 2.04 C 2.124,-0.949 2.07,-0.764 1.97,-0.649 1.87,-0.534 1.713,-0.476 1.499,-0.476 1.378,-0.476 1.27,-0.498 1.174,-0.542 1.076,-0.586 0.995,-0.647 0.928,-0.724 0.861,-0.802 0.809,-0.893 0.771,-0.997 0.733,-1.102 0.715,-1.212 0.715,-1.33 V -3.244 H 0 Z"
           style="fill:#231f20;fill-opacity:1;fill-rule:nonzero;stroke:none"
           id="path2528" />
      </g>
      <g
         id="g2530"
         transform="matrix(0.35277777,0,0,-0.35277777,593.5029,546.98171)"
         clip-path="url(#clipPath3557)">
        <path
           d="M 0,0 H -0.678 V 0.439 H -0.69 C -0.786,0.251 -0.927,0.117 -1.111,0.035 c -0.184,-0.082 -0.378,-0.123 -0.583,-0.123 -0.256,0 -0.478,0.045 -0.668,0.135 -0.191,0.09 -0.349,0.212 -0.474,0.368 -0.126,0.154 -0.22,0.337 -0.283,0.548 -0.063,0.212 -0.094,0.438 -0.094,0.681 0,0.293 0.04,0.546 0.119,0.759 0.08,0.214 0.185,0.39 0.317,0.527 0.132,0.138 0.283,0.24 0.451,0.305 0.17,0.065 0.342,0.097 0.518,0.097 0.101,0 0.203,-0.009 0.308,-0.028 0.105,-0.019 0.205,-0.049 0.301,-0.091 0.096,-0.042 0.186,-0.095 0.266,-0.16 0.082,-0.064 0.151,-0.141 0.205,-0.229 h 0.012 V 4.481 H 0 Z m -2.498,1.587 c 0,-0.138 0.018,-0.273 0.054,-0.407 0.035,-0.134 0.09,-0.254 0.162,-0.358 0.074,-0.105 0.167,-0.188 0.28,-0.251 0.113,-0.062 0.246,-0.094 0.401,-0.094 0.16,0 0.297,0.034 0.411,0.1 0.116,0.067 0.209,0.155 0.283,0.264 0.073,0.109 0.128,0.231 0.163,0.367 0.035,0.136 0.054,0.275 0.054,0.417 0,0.361 -0.081,0.64 -0.243,0.842 -0.16,0.2 -0.378,0.301 -0.655,0.301 -0.168,0 -0.309,-0.035 -0.423,-0.104 C -2.127,2.595 -2.22,2.505 -2.294,2.394 -2.368,2.283 -2.42,2.157 -2.45,2.017 -2.482,1.877 -2.498,1.734 -2.498,1.587"
           style="fill:#231f20;fill-opacity:1;fill-rule:nonzero;stroke:none"
           id="path2532" />
      </g>
      <g
         id="g2534"
         transform="matrix(0.35277777,0,0,-0.35277777,594.34213,545.40098)"
         clip-path="url(#clipPath3553)">
        <path
           d="M 0,0 H 0.785 V -1.782 H 2.823 V 0 H 3.608 V -4.481 H 2.823 V -2.46 H 0.785 V -4.481 H 0 Z"
           style="fill:#231f20;fill-opacity:1;fill-rule:nonzero;stroke:none"
           id="path2536" />
      </g>
      <g
         id="g2538"
         transform="matrix(0.35277777,0,0,-0.35277777,596.87888,546.98171)"
         clip-path="url(#clipPath3549)">
        <path
           d="M 0,0 H -0.703 V 0.451 H -0.715 C -0.803,0.289 -0.934,0.158 -1.108,0.059 c -0.173,-0.098 -0.351,-0.147 -0.531,-0.147 -0.426,0 -0.734,0.105 -0.924,0.317 -0.191,0.211 -0.286,0.53 -0.286,0.957 v 2.058 h 0.715 V 1.255 c 0,-0.285 0.054,-0.485 0.164,-0.602 0.107,-0.118 0.261,-0.176 0.457,-0.176 0.151,0 0.277,0.022 0.377,0.069 0.1,0.046 0.182,0.108 0.245,0.185 0.063,0.078 0.108,0.171 0.135,0.279 0.026,0.109 0.041,0.226 0.041,0.352 V 3.244 H 0 Z"
           style="fill:#231f20;fill-opacity:1;fill-rule:nonzero;stroke:none"
           id="path2540" />
      </g>
      <g
         id="g2542"
         transform="matrix(0.35277777,0,0,-0.35277777,597.1073,545.8373)"
         clip-path="url(#clipPath3545)">
        <path
           d="m 0,0 h 0.677 v -0.451 h 0.02 c 0.054,0.079 0.111,0.153 0.175,0.219 0.062,0.068 0.133,0.124 0.209,0.17 0.078,0.046 0.167,0.082 0.268,0.11 0.101,0.027 0.216,0.04 0.345,0.04 0.196,0 0.379,-0.044 0.548,-0.132 0.171,-0.088 0.291,-0.224 0.361,-0.407 0.121,0.167 0.262,0.299 0.421,0.395 0.16,0.096 0.357,0.144 0.597,0.144 0.343,0 0.61,-0.084 0.799,-0.25 0.19,-0.168 0.287,-0.449 0.287,-0.842 v -2.24 H 3.99 v 1.895 c 0,0.129 -0.004,0.248 -0.011,0.355 -0.009,0.106 -0.034,0.198 -0.074,0.276 -0.039,0.078 -0.098,0.137 -0.178,0.179 -0.08,0.042 -0.188,0.063 -0.326,0.063 -0.243,0 -0.419,-0.076 -0.527,-0.227 -0.11,-0.15 -0.163,-0.363 -0.163,-0.639 V -3.244 H 1.994 v 2.084 c 0,0.225 -0.04,0.396 -0.121,0.511 -0.081,0.115 -0.232,0.173 -0.45,0.173 -0.092,0 -0.181,-0.019 -0.266,-0.057 C 1.071,-0.571 0.996,-0.625 0.931,-0.697 0.866,-0.767 0.814,-0.855 0.774,-0.96 0.734,-1.064 0.714,-1.184 0.714,-1.318 V -3.244 H 0 Z"
           style="fill:#231f20;fill-opacity:1;fill-rule:nonzero;stroke:none"
           id="path2544" />
      </g>
      <g
         id="g2546"
         transform="matrix(0.35277777,0,0,-0.35277777,599.95168,546.72693)"
         clip-path="url(#clipPath3541)">
        <path
           d="m 0,0 c 0,-0.088 0.011,-0.151 0.035,-0.189 0.023,-0.038 0.068,-0.056 0.134,-0.056 h 0.076 c 0.029,0 0.063,0.004 0.1,0.012 V -0.728 C 0.32,-0.736 0.288,-0.747 0.248,-0.757 0.208,-0.767 0.167,-0.776 0.126,-0.784 0.084,-0.794 0.042,-0.8 0,-0.804 -0.042,-0.808 -0.077,-0.81 -0.107,-0.81 c -0.146,0 -0.268,0.03 -0.364,0.088 -0.096,0.058 -0.16,0.161 -0.188,0.307 -0.142,-0.138 -0.317,-0.238 -0.524,-0.301 -0.207,-0.062 -0.408,-0.094 -0.599,-0.094 -0.147,0 -0.288,0.019 -0.422,0.059 -0.134,0.04 -0.251,0.099 -0.353,0.176 -0.103,0.078 -0.184,0.176 -0.245,0.295 -0.061,0.12 -0.091,0.259 -0.091,0.418 0,0.2 0.036,0.363 0.11,0.489 0.073,0.126 0.169,0.224 0.289,0.295 0.118,0.071 0.253,0.123 0.401,0.154 0.148,0.031 0.298,0.055 0.449,0.072 0.13,0.025 0.253,0.043 0.37,0.053 0.116,0.01 0.221,0.029 0.311,0.053 0.09,0.026 0.161,0.065 0.213,0.117 0.052,0.052 0.079,0.13 0.079,0.235 0,0.092 -0.022,0.167 -0.066,0.226 C -0.781,1.891 -0.836,1.935 -0.9,1.967 -0.965,1.998 -1.038,2.019 -1.118,2.029 -1.196,2.04 -1.272,2.046 -1.343,2.046 -1.544,2.046 -1.709,2.004 -1.839,1.92 -1.968,1.836 -2.042,1.707 -2.058,1.531 h -0.716 c 0.013,0.208 0.063,0.382 0.151,0.521 0.088,0.138 0.199,0.248 0.336,0.332 0.136,0.084 0.289,0.142 0.461,0.176 0.171,0.033 0.347,0.05 0.527,0.05 0.159,0 0.315,-0.017 0.471,-0.05 C -0.675,2.526 -0.534,2.472 -0.411,2.397 -0.289,2.322 -0.188,2.225 -0.114,2.105 -0.038,1.986 0,1.84 0,1.669 Z M -0.715,0.903 C -0.824,0.832 -0.958,0.789 -1.118,0.774 -1.276,0.76 -1.435,0.737 -1.595,0.709 -1.669,0.697 -1.742,0.678 -1.815,0.656 -1.885,0.632 -1.947,0.601 -2.002,0.561 -2.056,0.521 -2.099,0.469 -2.13,0.404 -2.163,0.339 -2.177,0.26 -2.177,0.169 c 0,-0.079 0.021,-0.147 0.069,-0.201 0.046,-0.054 0.101,-0.097 0.165,-0.128 0.066,-0.032 0.136,-0.053 0.214,-0.067 0.078,-0.012 0.148,-0.018 0.21,-0.018 0.08,0 0.166,0.01 0.258,0.032 0.092,0.02 0.179,0.056 0.26,0.106 0.082,0.05 0.149,0.114 0.204,0.192 0.054,0.076 0.082,0.171 0.082,0.285 z"
           style="fill:#231f20;fill-opacity:1;fill-rule:nonzero;stroke:none"
           id="path2548" />
      </g>
      <g
         id="g2550"
         transform="matrix(0.35277777,0,0,-0.35277777,600.18451,545.8373)"
         clip-path="url(#clipPath3537)">
        <path
           d="m 0,0 h 0.677 v -0.476 l 0.012,-0.013 c 0.109,0.18 0.251,0.321 0.427,0.424 0.176,0.102 0.371,0.153 0.585,0.153 0.355,0 0.634,-0.092 0.84,-0.276 0.206,-0.184 0.307,-0.46 0.307,-0.828 V -3.244 H 2.134 v 2.04 C 2.124,-0.949 2.07,-0.764 1.97,-0.649 1.87,-0.534 1.712,-0.476 1.499,-0.476 1.377,-0.476 1.27,-0.498 1.174,-0.542 1.076,-0.586 0.995,-0.647 0.928,-0.724 0.861,-0.802 0.808,-0.893 0.771,-0.997 0.733,-1.102 0.714,-1.212 0.714,-1.33 V -3.244 H 0 Z"
           style="fill:#231f20;fill-opacity:1;fill-rule:nonzero;stroke:none"
           id="path2552" />
      </g>
      <g
         id="g2554"
         transform="matrix(0.35277777,0,0,-0.35277777,602.02827,545.40098)"
         clip-path="url(#clipPath3533)">
        <path
           d="M 0,0 H 1.858 C 2.2,0 2.497,-0.059 2.749,-0.176 3,-0.293 3.204,-0.453 3.364,-0.656 3.523,-0.859 3.64,-1.096 3.717,-1.369 3.795,-1.64 3.834,-1.931 3.834,-2.241 3.834,-2.55 3.795,-2.84 3.717,-3.113 3.64,-3.385 3.523,-3.622 3.364,-3.825 3.204,-4.028 3,-4.188 2.749,-4.305 2.497,-4.423 2.2,-4.481 1.858,-4.481 H 0 Z m 0.784,-3.84 h 0.772 c 0.306,0 0.555,0.041 0.75,0.121 0.194,0.082 0.347,0.195 0.457,0.339 0.112,0.145 0.187,0.314 0.227,0.509 0.039,0.194 0.06,0.404 0.06,0.63 0,0.227 -0.021,0.436 -0.06,0.631 C 2.95,-1.416 2.875,-1.246 2.763,-1.101 2.653,-0.957 2.5,-0.845 2.306,-0.763 2.111,-0.681 1.862,-0.64 1.556,-0.64 H 0.784 Z"
           style="fill:#231f20;fill-opacity:1;fill-rule:nonzero;stroke:none"
           id="path2556" />
      </g>
      <g
         id="g2558"
         transform="matrix(0.35277777,0,0,-0.35277777,603.7506,546.47469)"
         clip-path="url(#clipPath3529)">
        <path
           d="m 0,0 c 0,-0.126 0.018,-0.247 0.054,-0.364 0.035,-0.117 0.088,-0.219 0.159,-0.307 0.071,-0.088 0.161,-0.158 0.271,-0.211 0.108,-0.053 0.238,-0.078 0.388,-0.078 0.209,0 0.378,0.045 0.505,0.135 0.128,0.089 0.223,0.224 0.287,0.404 H 2.341 C 2.303,-0.597 2.238,-0.753 2.146,-0.891 2.055,-1.03 1.943,-1.145 1.814,-1.239 1.684,-1.334 1.539,-1.405 1.377,-1.453 1.216,-1.501 1.049,-1.525 0.872,-1.525 c -0.254,0 -0.481,0.042 -0.677,0.126 -0.197,0.083 -0.362,0.2 -0.499,0.351 -0.136,0.15 -0.239,0.33 -0.308,0.539 -0.069,0.21 -0.103,0.439 -0.103,0.691 0,0.23 0.036,0.448 0.111,0.655 0.072,0.208 0.177,0.39 0.312,0.547 0.136,0.156 0.301,0.281 0.493,0.373 0.192,0.092 0.41,0.138 0.652,0.138 0.256,0 0.485,-0.054 0.688,-0.16 C 1.744,1.628 1.912,1.487 2.046,1.311 2.18,1.136 2.277,0.933 2.338,0.706 2.398,0.478 2.414,0.242 2.385,0 Z M 1.669,0.471 C 1.662,0.583 1.637,0.692 1.597,0.797 1.557,0.902 1.503,0.993 1.434,1.07 1.365,1.147 1.281,1.21 1.184,1.258 1.085,1.306 0.975,1.331 0.853,1.331 0.728,1.331 0.615,1.308 0.511,1.264 0.409,1.22 0.321,1.16 0.248,1.083 0.175,1.005 0.116,0.914 0.072,0.81 0.028,0.705 0.004,0.592 0,0.471 Z"
           style="fill:#231f20;fill-opacity:1;fill-rule:nonzero;stroke:none"
           id="path2560" />
      </g>
      <g
         id="g2562"
         transform="matrix(0.35277777,0,0,-0.35277777,604.63131,545.8373)"
         clip-path="url(#clipPath3525)">
        <path
           d="M 0,0 H 0.779 L 1.601,-2.491 H 1.613 L 2.404,0 h 0.74 L 1.984,-3.244 H 1.18 Z"
           style="fill:#231f20;fill-opacity:1;fill-rule:nonzero;stroke:none"
           id="path2564" />
      </g>
      <g
         id="g2566"
         transform="matrix(0.35277777,0,0,-0.35277777,606.0504,546.47469)"
         clip-path="url(#clipPath3521)">
        <path
           d="m 0,0 c 0,-0.126 0.019,-0.247 0.054,-0.364 0.035,-0.117 0.089,-0.219 0.159,-0.307 0.073,-0.088 0.162,-0.158 0.271,-0.211 0.109,-0.053 0.239,-0.078 0.388,-0.078 0.209,0 0.378,0.045 0.506,0.135 0.128,0.089 0.222,0.224 0.286,0.404 H 2.341 C 2.303,-0.597 2.239,-0.753 2.147,-0.891 2.055,-1.03 1.944,-1.145 1.815,-1.239 1.685,-1.334 1.54,-1.405 1.378,-1.453 1.216,-1.501 1.049,-1.525 0.872,-1.525 c -0.254,0 -0.481,0.042 -0.676,0.126 -0.198,0.083 -0.363,0.2 -0.5,0.351 -0.136,0.15 -0.238,0.33 -0.308,0.539 -0.068,0.21 -0.102,0.439 -0.102,0.691 0,0.23 0.036,0.448 0.109,0.655 0.073,0.208 0.178,0.39 0.314,0.547 0.136,0.156 0.3,0.281 0.493,0.373 0.191,0.092 0.409,0.138 0.652,0.138 0.256,0 0.484,-0.054 0.688,-0.16 C 1.743,1.628 1.912,1.487 2.046,1.311 2.18,1.136 2.278,0.933 2.339,0.706 2.398,0.478 2.415,0.242 2.385,0 Z M 1.67,0.471 C 1.662,0.583 1.638,0.692 1.597,0.797 1.557,0.902 1.504,0.993 1.434,1.07 1.366,1.147 1.282,1.21 1.184,1.258 1.085,1.306 0.976,1.331 0.854,1.331 0.728,1.331 0.615,1.308 0.511,1.264 0.41,1.22 0.322,1.16 0.248,1.083 0.175,1.005 0.116,0.914 0.072,0.81 0.028,0.705 0.004,0.592 0,0.471 Z"
           style="fill:#231f20;fill-opacity:1;fill-rule:nonzero;stroke:none"
           id="path2568" />
      </g>
      <path
         d="m 607.05345,545.40098 h 0.25188 v 1.5808 h -0.25188 z"
         style="fill:#231f20;fill-opacity:1;fill-rule:nonzero;stroke:none;stroke-width:0.352778"
         id="path2570" />
      <g
         id="g2572"
         transform="matrix(0.35277777,0,0,-0.35277777,608.06532,547.01272)"
         clip-path="url(#clipPath3517)">
        <path
           d="m 0,0 c -0.259,0 -0.492,0.043 -0.693,0.129 -0.203,0.086 -0.375,0.204 -0.515,0.354 -0.14,0.151 -0.248,0.331 -0.32,0.54 -0.073,0.209 -0.11,0.44 -0.11,0.69 0,0.247 0.037,0.475 0.11,0.684 0.072,0.21 0.18,0.39 0.32,0.54 0.14,0.151 0.312,0.269 0.515,0.355 C -0.492,3.377 -0.259,3.42 0,3.42 0.259,3.42 0.491,3.377 0.693,3.292 0.896,3.206 1.068,3.088 1.207,2.937 1.348,2.787 1.455,2.607 1.528,2.397 1.6,2.188 1.638,1.96 1.638,1.713 1.638,1.463 1.6,1.232 1.528,1.023 1.455,0.814 1.348,0.634 1.207,0.483 1.068,0.333 0.896,0.215 0.693,0.129 0.491,0.043 0.259,0 0,0 m 0,0.565 c 0.158,0 0.297,0.034 0.414,0.1 C 0.531,0.732 0.628,0.82 0.703,0.928 0.778,1.038 0.834,1.16 0.869,1.296 0.904,1.432 0.922,1.571 0.922,1.713 0.922,1.851 0.904,1.99 0.869,2.128 0.834,2.266 0.778,2.388 0.703,2.494 0.628,2.602 0.531,2.688 0.414,2.755 0.297,2.822 0.158,2.856 0,2.856 -0.159,2.856 -0.297,2.822 -0.414,2.755 -0.531,2.688 -0.628,2.602 -0.703,2.494 -0.778,2.388 -0.834,2.266 -0.869,2.128 -0.905,1.99 -0.923,1.851 -0.923,1.713 -0.923,1.571 -0.905,1.432 -0.869,1.296 -0.834,1.16 -0.778,1.038 -0.703,0.928 -0.628,0.82 -0.531,0.732 -0.414,0.665 -0.297,0.599 -0.159,0.565 0,0.565"
           style="fill:#231f20;fill-opacity:1;fill-rule:nonzero;stroke:none"
           id="path2574" />
      </g>
      <g
         id="g2576"
         transform="matrix(0.35277777,0,0,-0.35277777,608.82249,545.8373)"
         clip-path="url(#clipPath3513)">
        <path
           d="M 0,0 H 0.678 V -0.439 H 0.69 c 0.101,0.189 0.24,0.324 0.421,0.405 0.18,0.082 0.374,0.122 0.583,0.122 0.256,0 0.478,-0.045 0.669,-0.135 0.19,-0.09 0.348,-0.213 0.473,-0.37 0.126,-0.157 0.22,-0.34 0.283,-0.549 0.063,-0.21 0.094,-0.433 0.094,-0.671 0,-0.218 -0.028,-0.429 -0.085,-0.635 C 3.072,-2.476 2.986,-2.658 2.871,-2.814 2.756,-2.971 2.611,-3.097 2.435,-3.191 2.259,-3.285 2.052,-3.332 1.814,-3.332 c -0.105,0 -0.21,0.009 -0.315,0.029 -0.104,0.018 -0.204,0.049 -0.3,0.091 -0.097,0.042 -0.186,0.095 -0.268,0.159 -0.081,0.065 -0.149,0.142 -0.203,0.23 H 0.714 v -1.62 H 0 Z m 2.498,-1.625 c 0,0.146 -0.019,0.289 -0.057,0.427 -0.038,0.138 -0.094,0.26 -0.169,0.367 -0.077,0.107 -0.17,0.193 -0.283,0.257 C 1.876,-0.509 1.747,-0.476 1.6,-0.476 1.299,-0.476 1.072,-0.581 0.919,-0.791 0.767,-1 0.69,-1.278 0.69,-1.625 c 0,-0.163 0.02,-0.315 0.06,-0.455 0.04,-0.141 0.099,-0.26 0.179,-0.361 0.079,-0.1 0.174,-0.18 0.285,-0.238 0.11,-0.058 0.239,-0.088 0.386,-0.088 0.163,0 0.301,0.034 0.414,0.1 0.113,0.067 0.206,0.154 0.28,0.261 0.073,0.107 0.125,0.227 0.157,0.364 0.031,0.136 0.047,0.275 0.047,0.417"
           style="fill:#231f20;fill-opacity:1;fill-rule:nonzero;stroke:none"
           id="path2578" />
      </g>
      <g
         id="g2580"
         transform="matrix(0.35277777,0,0,-0.35277777,610.12862,545.8373)"
         clip-path="url(#clipPath3509)">
        <path
           d="m 0,0 h 0.677 v -0.451 h 0.02 c 0.054,0.079 0.112,0.153 0.175,0.219 0.062,0.068 0.133,0.124 0.209,0.17 0.078,0.046 0.167,0.082 0.268,0.11 0.101,0.027 0.216,0.04 0.345,0.04 0.197,0 0.379,-0.044 0.548,-0.132 0.171,-0.088 0.291,-0.224 0.361,-0.407 0.122,0.167 0.262,0.299 0.421,0.395 0.16,0.096 0.357,0.144 0.597,0.144 0.343,0 0.61,-0.084 0.799,-0.25 0.19,-0.168 0.287,-0.449 0.287,-0.842 v -2.24 H 3.99 v 1.895 c 0,0.129 -0.004,0.248 -0.011,0.355 -0.009,0.106 -0.034,0.198 -0.074,0.276 -0.039,0.078 -0.098,0.137 -0.178,0.179 -0.08,0.042 -0.188,0.063 -0.326,0.063 -0.243,0 -0.419,-0.076 -0.527,-0.227 -0.11,-0.15 -0.163,-0.363 -0.163,-0.639 V -3.244 H 1.995 v 2.084 c 0,0.225 -0.041,0.396 -0.122,0.511 -0.081,0.115 -0.232,0.173 -0.45,0.173 -0.091,0 -0.18,-0.019 -0.266,-0.057 C 1.071,-0.571 0.996,-0.625 0.932,-0.697 0.866,-0.767 0.814,-0.855 0.774,-0.96 0.734,-1.064 0.714,-1.184 0.714,-1.318 V -3.244 H 0 Z"
           style="fill:#231f20;fill-opacity:1;fill-rule:nonzero;stroke:none"
           id="path2582" />
      </g>
      <g
         id="g2584"
         transform="matrix(0.35277777,0,0,-0.35277777,612.21145,546.47469)"
         clip-path="url(#clipPath3505)">
        <path
           d="m 0,0 c 0,-0.126 0.019,-0.247 0.054,-0.364 0.035,-0.117 0.089,-0.219 0.159,-0.307 0.073,-0.088 0.162,-0.158 0.271,-0.211 0.109,-0.053 0.239,-0.078 0.388,-0.078 0.211,0 0.379,0.045 0.507,0.135 0.127,0.089 0.222,0.224 0.285,0.404 H 2.342 C 2.304,-0.597 2.239,-0.753 2.147,-0.891 2.055,-1.03 1.944,-1.145 1.815,-1.239 1.685,-1.334 1.54,-1.405 1.379,-1.453 1.216,-1.501 1.049,-1.525 0.872,-1.525 c -0.254,0 -0.481,0.042 -0.676,0.126 -0.198,0.083 -0.363,0.2 -0.5,0.351 -0.136,0.15 -0.238,0.33 -0.308,0.539 -0.068,0.21 -0.102,0.439 -0.102,0.691 0,0.23 0.036,0.448 0.109,0.655 0.074,0.208 0.178,0.39 0.314,0.547 0.136,0.156 0.3,0.281 0.493,0.373 0.191,0.092 0.409,0.138 0.653,0.138 0.255,0 0.484,-0.054 0.687,-0.16 C 1.743,1.628 1.913,1.487 2.046,1.311 2.18,1.136 2.278,0.933 2.339,0.706 2.398,0.478 2.415,0.242 2.386,0 Z M 1.67,0.471 C 1.662,0.583 1.638,0.692 1.598,0.797 1.558,0.902 1.504,0.993 1.434,1.07 1.366,1.147 1.282,1.21 1.184,1.258 1.086,1.306 0.976,1.331 0.855,1.331 0.729,1.331 0.615,1.308 0.513,1.264 0.41,1.22 0.322,1.16 0.249,1.083 0.175,1.005 0.117,0.914 0.073,0.81 0.029,0.705 0.004,0.592 0,0.471 Z"
           style="fill:#231f20;fill-opacity:1;fill-rule:nonzero;stroke:none"
           id="path2586" />
      </g>
      <g
         id="g2588"
         transform="matrix(0.35277777,0,0,-0.35277777,613.20582,545.8373)"
         clip-path="url(#clipPath3501)">
        <path
           d="m 0,0 h 0.677 v -0.476 l 0.012,-0.013 c 0.109,0.18 0.251,0.321 0.427,0.424 0.176,0.102 0.371,0.153 0.585,0.153 0.355,0 0.634,-0.092 0.839,-0.276 0.207,-0.184 0.308,-0.46 0.308,-0.828 V -3.244 H 2.134 v 2.04 C 2.124,-0.949 2.07,-0.764 1.97,-0.649 1.87,-0.534 1.712,-0.476 1.499,-0.476 1.377,-0.476 1.27,-0.498 1.174,-0.542 1.076,-0.586 0.995,-0.647 0.928,-0.724 0.861,-0.802 0.808,-0.893 0.771,-0.997 0.733,-1.102 0.714,-1.212 0.714,-1.33 V -3.244 H 0 Z"
           style="fill:#231f20;fill-opacity:1;fill-rule:nonzero;stroke:none"
           id="path2590" />
      </g>
      <g
         id="g2592"
         transform="matrix(0.35277777,0,0,-0.35277777,614.32381,545.8373)"
         clip-path="url(#clipPath3497)">
        <path
           d="M 0,0 H 0.541 V 0.973 H 1.255 V 0 H 1.901 V -0.533 H 1.255 v -1.732 c 0,-0.075 0.003,-0.14 0.01,-0.195 0.006,-0.054 0.02,-0.1 0.044,-0.137 0.022,-0.038 0.057,-0.067 0.104,-0.085 0.046,-0.02 0.108,-0.029 0.187,-0.029 0.05,0 0.101,10e-4 0.151,0.003 0.05,0.002 0.101,0.011 0.15,0.023 V -3.238 C 1.822,-3.246 1.745,-3.254 1.669,-3.262 1.594,-3.271 1.517,-3.276 1.437,-3.276 c -0.188,0 -0.34,0.019 -0.455,0.055 -0.115,0.034 -0.205,0.087 -0.27,0.156 -0.065,0.069 -0.109,0.156 -0.131,0.26 -0.024,0.104 -0.036,0.224 -0.04,0.358 v 1.914 H 0 Z"
           style="fill:#231f20;fill-opacity:1;fill-rule:nonzero;stroke:none"
           id="path2594" />
      </g>
    </g>
  </g>
</svg>
